<svg width="43" height="43" viewBox="0 0 43 43" fill="none" xmlns="http://www.w3.org/2000/svg">
<path d="M5.375 21.5H21.5V24.1875H5.375V21.5ZM2.6875 14.7812H16.125V17.4688H2.6875V14.7812Z" fill="black"/>
<path d="M40.2038 22.3143L36.1725 12.9081C36.0691 12.6663 35.8969 12.4602 35.6774 12.3155C35.4578 12.1707 35.2006 12.0936 34.9376 12.0938H30.9064V9.40625C30.9064 9.04987 30.7648 8.70808 30.5128 8.45608C30.2608 8.20407 29.919 8.0625 29.5626 8.0625H8.06261V10.75H28.2189V27.6221C27.6066 27.9777 27.0707 28.4509 26.6422 29.0146C26.2137 29.5782 25.901 30.2212 25.7222 30.9062H17.2781C16.951 29.6396 16.1732 28.5356 15.0904 27.8014C14.0077 27.0671 12.6943 26.753 11.3965 26.9178C10.0986 27.0827 8.9055 27.7152 8.04068 28.6968C7.17586 29.6784 6.69873 30.9418 6.69873 32.25C6.69873 33.5582 7.17586 34.8216 8.04068 35.8032C8.9055 36.7848 10.0986 37.4173 11.3965 37.5822C12.6943 37.747 14.0077 37.4329 15.0904 36.6986C16.1732 35.9644 16.951 34.8604 17.2781 33.5938H25.7222C26.0145 34.747 26.683 35.7699 27.6219 36.5005C28.5609 37.2312 29.7166 37.6279 30.9064 37.6279C32.0961 37.6279 33.2519 37.2312 34.1908 36.5005C35.1297 35.7699 35.7982 34.747 36.0906 33.5938H38.9689C39.3253 33.5938 39.667 33.4522 39.919 33.2002C40.171 32.9482 40.3126 32.6064 40.3126 32.25V22.8438C40.3127 22.6617 40.2756 22.4816 40.2038 22.3143ZM12.0939 34.9375C11.5623 34.9375 11.0427 34.7799 10.6008 34.4846C10.1588 34.1893 9.81435 33.7695 9.61094 33.2785C9.40753 32.7874 9.35431 32.247 9.458 31.7257C9.5617 31.2044 9.81766 30.7255 10.1935 30.3497C10.5694 29.9738 11.0482 29.7178 11.5696 29.6141C12.0909 29.5104 12.6312 29.5637 13.1223 29.7671C13.6134 29.9705 14.0331 30.3149 14.3284 30.7569C14.6237 31.1989 14.7814 31.7185 14.7814 32.25C14.7807 32.9626 14.4973 33.6457 13.9934 34.1496C13.4896 34.6534 12.8064 34.9368 12.0939 34.9375ZM30.9064 14.7812H34.0507L36.9317 21.5H30.9064V14.7812ZM30.9064 34.9375C30.3748 34.9375 29.8552 34.7799 29.4133 34.4846C28.9713 34.1893 28.6269 33.7695 28.4234 33.2785C28.22 32.7874 28.1668 32.247 28.2705 31.7257C28.3742 31.2044 28.6302 30.7255 29.006 30.3497C29.3819 29.9738 29.8607 29.7178 30.3821 29.6141C30.9034 29.5104 31.4438 29.5637 31.9348 29.7671C32.4259 29.9705 32.8456 30.3149 33.1409 30.7569C33.4362 31.1989 33.5939 31.7185 33.5939 32.25C33.5932 32.9626 33.3098 33.6457 32.8059 34.1496C32.3021 34.6534 31.6189 34.9368 30.9064 34.9375ZM37.6251 30.9062H36.0906C35.7946 29.7552 35.125 28.735 34.1868 28.0054C33.2486 27.2759 32.0948 26.8783 30.9064 26.875V24.1875H37.6251V30.9062Z" fill="black"/>
</svg>
