<svg width="43" height="43" viewBox="0 0 43 43" fill="none" xmlns="http://www.w3.org/2000/svg">
<path d="M3.58325 10.75C3.58325 9.79965 3.96078 8.88821 4.63279 8.21621C5.30479 7.5442 6.21623 7.16667 7.16659 7.16667H35.8333C36.7836 7.16667 37.695 7.5442 38.3671 8.21621C39.0391 8.88821 39.4166 9.79965 39.4166 10.75V32.25C39.4166 33.2004 39.0391 34.1118 38.3671 34.7838C37.695 35.4558 36.7836 35.8333 35.8333 35.8333H7.16659C6.21623 35.8333 5.30479 35.4558 4.63279 34.7838C3.96078 34.1118 3.58325 33.2004 3.58325 32.25V10.75ZM9.88813 10.75L21.4999 20.9105L33.1117 10.75H9.88813ZM35.8333 13.1311L22.6806 24.6408C22.3539 24.9271 21.9343 25.0849 21.4999 25.0849C21.0655 25.0849 20.6459 24.9271 20.3192 24.6408L7.16659 13.1311V32.25H35.8333V13.1311Z" fill="black"/>
</svg>
