<svg width="48" height="52" viewBox="0 0 48 52" fill="none" xmlns="http://www.w3.org/2000/svg">
<path d="M6.5 10.9024C6.5 9.34887 7.07946 7.85893 8.11091 6.7604C9.14236 5.66186 10.5413 5.04471 12 5.04471H32C33.4587 5.04471 34.8576 5.66186 35.8891 6.7604C36.9205 7.85893 37.5 9.34887 37.5 10.9024V22.6179C37.5 23.0416 37.342 23.4479 37.0607 23.7475C36.7794 24.0471 36.3978 24.2154 36 24.2154C35.6022 24.2154 35.2206 24.0471 34.9393 23.7475C34.658 23.4479 34.5 23.0416 34.5 22.6179V10.9024C34.5 9.43268 33.38 8.23983 32 8.23983H12C10.62 8.23983 9.5 9.43268 9.5 10.9024V41.5373C9.49983 41.6282 9.52151 41.7176 9.56298 41.797C9.60445 41.8765 9.66432 41.9433 9.7369 41.9911C9.80948 42.039 9.89235 42.0662 9.97761 42.0703C10.0629 42.0744 10.1477 42.0551 10.224 42.0144L12.224 40.9494C12.8052 40.64 13.4557 40.509 14.1029 40.571C14.75 40.6331 15.3681 40.8858 15.888 41.3008L17.7 42.7471C17.7865 42.8163 17.8918 42.8536 18 42.8536C18.1082 42.8536 18.2135 42.8163 18.3 42.7471L20.024 41.369C20.5806 40.9248 21.2489 40.6673 21.9435 40.6293C22.6381 40.5914 23.3276 40.7747 23.924 41.156L25.272 42.0165C25.443 42.1234 25.5923 42.2653 25.7115 42.434C25.8306 42.6027 25.9172 42.795 25.9662 42.9995C26.0152 43.2041 26.0256 43.417 25.9969 43.6259C25.9681 43.8348 25.9008 44.0355 25.7988 44.2165C25.6968 44.3976 25.562 44.5552 25.4025 44.6805C25.2429 44.8057 25.0615 44.896 24.869 44.9461C24.6764 44.9963 24.4764 45.0053 24.2806 44.9726C24.0848 44.9399 23.8969 44.8663 23.728 44.7558L22.382 43.8953C22.2968 43.8405 22.1981 43.8141 22.0987 43.8194C21.9993 43.8247 21.9037 43.8615 21.824 43.9251L20.1 45.3032C19.4942 45.7872 18.7573 46.0488 18 46.0488C17.2427 46.0488 16.5058 45.7872 15.9 45.3032L14.088 43.8548C14.0138 43.796 13.9257 43.7603 13.8335 43.7516C13.7414 43.743 13.6487 43.7617 13.566 43.8058L11.566 44.8708C11.0324 45.1552 10.4394 45.2895 9.84334 45.261C9.24728 45.2326 8.66794 45.0423 8.16035 44.7083C7.65276 44.3743 7.23377 43.9076 6.94317 43.3526C6.65257 42.7976 6.50002 42.1727 6.5 41.5373V10.9024Z" fill="black"/>
<path d="M35 31.6707C33.5413 31.6707 32.1424 32.2879 31.1109 33.3864C30.0795 34.4849 29.5 35.9749 29.5 37.5284C29.5 39.082 30.0795 40.5719 31.1109 41.6705C32.1424 42.769 33.5413 43.3862 35 43.3862C36.4587 43.3862 37.8576 42.769 38.8891 41.6705C39.9205 40.5719 40.5 39.082 40.5 37.5284C40.5 35.9749 39.9205 34.4849 38.8891 33.3864C37.8576 32.2879 36.4587 31.6707 35 31.6707ZM26.5 37.5284C26.5 36.3396 26.7199 35.1624 27.147 34.0641C27.5742 32.9657 28.2003 31.9678 28.9896 31.1271C29.7789 30.2865 30.7159 29.6197 31.7472 29.1647C32.7785 28.7098 33.8838 28.4756 35 28.4756C36.1162 28.4756 37.2215 28.7098 38.2528 29.1647C39.2841 29.6197 40.2211 30.2865 41.0104 31.1271C41.7997 31.9678 42.4258 32.9657 42.853 34.0641C43.2801 35.1624 43.5 36.3396 43.5 37.5284C43.5 39.9294 42.6045 42.232 41.0104 43.9298C39.4163 45.6275 37.2543 46.5813 35 46.5813C32.7457 46.5813 30.5837 45.6275 28.9896 43.9298C27.3955 42.232 26.5 39.9294 26.5 37.5284ZM38.686 34.5357C38.9669 34.8352 39.1247 35.2413 39.1247 35.6646C39.1247 36.088 38.9669 36.494 38.686 36.7936L34.126 41.6502L31.314 38.6574C31.1666 38.5111 31.0484 38.3348 30.9664 38.1388C30.8845 37.9428 30.8404 37.7313 30.8368 37.5168C30.8333 37.3023 30.8703 37.0892 30.9458 36.8903C31.0212 36.6914 31.1335 36.5107 31.2759 36.359C31.4184 36.2072 31.588 36.0877 31.7748 36.0073C31.9616 35.927 32.1616 35.8875 32.363 35.8913C32.5644 35.8951 32.7631 35.942 32.9471 36.0293C33.1311 36.1167 33.2967 36.2425 33.434 36.3995L34.126 37.1322L36.566 34.5336C36.8473 34.2344 37.2285 34.0663 37.626 34.0663C38.0235 34.0663 38.4047 34.2365 38.686 34.5357ZM12.5 15.1626C12.5 14.7389 12.658 14.3325 12.9393 14.0329C13.2206 13.7333 13.6022 13.565 14 13.565H27C27.3978 13.565 27.7794 13.7333 28.0607 14.0329C28.342 14.3325 28.5 14.7389 28.5 15.1626C28.5 15.5863 28.342 15.9926 28.0607 16.2922C27.7794 16.5918 27.3978 16.7602 27 16.7602H14C13.6022 16.7602 13.2206 16.5918 12.9393 16.2922C12.658 15.9926 12.5 15.5863 12.5 15.1626ZM12.5 21.5528C12.5 21.1291 12.658 20.7228 12.9393 20.4232C13.2206 20.1236 13.6022 19.9553 14 19.9553H30C30.3978 19.9553 30.7794 20.1236 31.0607 20.4232C31.342 20.7228 31.5 21.1291 31.5 21.5528C31.5 21.9765 31.342 22.3829 31.0607 22.6825C30.7794 22.9821 30.3978 23.1504 30 23.1504H14C13.6022 23.1504 13.2206 22.9821 12.9393 22.6825C12.658 22.3829 12.5 21.9765 12.5 21.5528ZM12.5 27.9431C12.5 27.5194 12.658 27.113 12.9393 26.8134C13.2206 26.5138 13.6022 26.3455 14 26.3455H21C21.3978 26.3455 21.7794 26.5138 22.0607 26.8134C22.342 27.113 22.5 27.5194 22.5 27.9431C22.5 28.3668 22.342 28.7731 22.0607 29.0727C21.7794 29.3723 21.3978 29.5406 21 29.5406H14C13.6022 29.5406 13.2206 29.3723 12.9393 29.0727C12.658 28.7731 12.5 28.3668 12.5 27.9431ZM12.5 34.3333C12.5 33.9096 12.658 33.5033 12.9393 33.2037C13.2206 32.9041 13.6022 32.7358 14 32.7358H21C21.3978 32.7358 21.7794 32.9041 22.0607 33.2037C22.342 33.5033 22.5 33.9096 22.5 34.3333C22.5 34.757 22.342 35.1634 22.0607 35.463C21.7794 35.7626 21.3978 35.9309 21 35.9309H14C13.6022 35.9309 13.2206 35.7626 12.9393 35.463C12.658 35.1634 12.5 34.757 12.5 34.3333Z" fill="black"/>
</svg>
