<svg width="41" height="41" viewBox="0 0 41 41" fill="none" xmlns="http://www.w3.org/2000/svg">
<path d="M31.1546 10.1139C29.0363 6.52488 26.029 3.5422 22.4228 1.45342L21.7812 1.08234L21.1396 1.45342C17.472 3.57006 14.4265 6.61532 12.3097 10.2828C10.1928 13.9503 9.07914 18.1106 9.08081 22.3452C9.08081 22.621 9.08562 22.9012 9.09499 23.178C9.22247 26.9301 10.6574 30.0874 13.2446 32.3083C15.2245 34.008 17.7641 35.0456 20.5003 35.2931V39.7188H23.0628V19.2188H20.5V32.7142C16.1706 32.2126 11.8617 29.1543 11.6558 23.0908C11.6473 22.843 11.643 22.5921 11.643 22.3452C11.6506 18.6888 12.5844 15.0939 14.3573 11.896C16.1301 8.69813 18.6842 6.00151 21.7812 4.0578C24.8781 6.00155 27.4322 8.69819 29.205 11.8961C30.9777 15.0939 31.9115 18.6888 31.9191 22.3452C31.9191 22.5921 31.9148 22.843 31.9063 23.0909C31.7416 27.9415 28.9508 30.8687 25.6246 32.1026V34.8146C27.3507 34.3254 28.9513 33.4706 30.3178 32.3082C32.905 30.0872 34.3399 26.93 34.4674 23.1779C34.4768 22.9011 34.4816 22.6209 34.4816 22.3451C34.4839 18.0442 33.3352 13.821 31.1546 10.1139Z" fill="black"/>
</svg>
