<svg width="45" height="49" viewBox="0 0 45 49" fill="none" xmlns="http://www.w3.org/2000/svg">
<path d="M19.2552 26.1468C21.8738 26.8219 23.9516 27.8037 25.4886 29.0924C27.0256 30.3812 27.7941 32.2528 27.7941 34.7075C27.7941 36.6713 27.2106 38.2361 26.0436 39.4021C24.8766 40.5681 23.3538 41.3351 21.4753 41.7033V45.9377H16.0104V41.7033C14.0749 41.2738 12.4952 40.4146 11.2713 39.1259C10.0474 37.8372 9.3785 36.1803 9.26465 34.1552H13.2779C13.5056 36.9167 15.3273 38.2975 18.7428 38.2975C20.5075 38.2975 21.7599 37.9293 22.4999 37.1929C23.24 36.4565 23.61 35.6587 23.61 34.7996C23.61 33.7563 23.2257 32.8358 22.4572 32.0381C21.6887 31.2403 20.2514 30.5653 18.1451 30.013C12.4525 28.5401 9.6062 25.84 9.6062 21.9125C9.6062 20.1329 10.2039 18.6141 11.3994 17.356C12.5948 16.098 14.1318 15.2542 16.0104 14.8246V10.5903H21.4753V14.9167C23.2969 15.4076 24.7058 16.3281 25.702 17.6782C26.6982 19.0283 27.2248 20.5931 27.2817 22.3728H23.2684C23.1546 19.6113 21.6461 18.2305 18.7428 18.2305C17.2058 18.2305 15.9961 18.568 15.1138 19.2431C14.2314 19.9181 13.7903 20.8079 13.7903 21.9125C13.7903 22.833 14.1887 23.6155 14.9857 24.2598C15.7827 24.9042 17.2058 25.5332 19.2552 26.1468Z" fill="black"/>
</svg>
