<svg width="36" height="36" viewBox="0 0 36 36" fill="none" xmlns="http://www.w3.org/2000/svg">
<g clip-path="url(#clip0_22_893)">
<path d="M9.13025 1.38461C7.16548 1.38461 5.11071 2.65431 3.28855 5.01923C1.4664 7.38415 0.0568616 10.9482 0.130246 15.6642C0.130246 17.9155 0.848862 20.4134 2.20717 22.5C2.40655 22.8074 2.75132 22.9915 2.98532 23.2795C2.03271 24.4302 0.389169 26.6109 0.389169 26.6109C0.241713 26.7366 0.122264 26.8918 0.0385464 27.0665C-0.0451715 27.2412 -0.0912956 27.4315 -0.0968441 27.6252C-0.102393 27.8188 -0.0672419 28.0115 0.00633541 28.1907C0.0799128 28.3699 0.190279 28.5317 0.3303 28.6656C0.47032 28.7994 0.636878 28.9025 0.819207 28.9679C1.00153 29.0334 1.19557 29.0599 1.38878 29.0457C1.58199 29.0315 1.77007 28.9769 1.94085 28.8854C2.11163 28.794 2.26132 28.6677 2.38025 28.5148C2.38025 28.5148 4.04594 26.2855 4.93209 25.2263C5.95394 25.8757 7.12255 26.3077 8.43794 26.3077C10.8029 26.3077 13.0238 25.1765 14.9276 23.6243C15.1976 23.4055 15.361 23.0829 15.6199 22.8462C16.2306 23.274 16.9492 23.5385 17.7398 23.5385C19.0676 23.5385 20.1947 22.9057 21.1598 22.1538C22.1235 21.402 22.9501 20.4965 23.7116 19.6006C24.2226 18.9997 24.5964 18.5012 25.0104 18C24.9592 18.6522 24.9176 19.2946 24.9232 19.9038C24.9259 20.2223 24.9398 20.5089 25.0533 20.8994C25.1087 21.0932 25.1586 21.3618 25.3995 21.6346C25.6404 21.9074 26.1306 22.1538 26.5667 22.1538C27.6979 22.1538 28.5398 21.5197 29.1629 20.8994C29.7859 20.2777 30.2858 19.5632 30.8521 18.9083C31.9792 17.5998 33.0647 16.6154 34.6155 16.6154C34.9827 16.6154 35.3349 16.4695 35.5945 16.2098C35.8542 15.9502 36.0001 15.598 36.0001 15.2308C36.0001 14.8635 35.8542 14.5114 35.5945 14.2517C35.3349 13.992 34.9827 13.8462 34.6155 13.8462C31.8739 13.8462 30.0324 15.6323 28.7738 17.0917C28.3833 17.5445 28.0898 17.8532 27.7796 18.216C27.7824 18.1662 27.7755 18.1371 27.7796 18.0858C27.8322 17.3825 27.9181 16.6971 27.8655 16.0089C27.8515 15.6209 27.7631 15.2393 27.6052 14.8846C27.4113 14.4609 26.7633 13.8462 26.0475 13.8462C25.2984 13.8462 24.8761 14.1757 24.5341 14.4526C24.1921 14.7295 23.893 15.0508 23.5815 15.4038C22.9584 16.11 22.3007 16.9491 21.5918 17.784C20.8815 18.6189 20.1296 19.4442 19.4276 19.9911C18.727 20.5366 18.1441 20.7692 17.7398 20.7692C17.6484 20.7692 17.6013 20.6128 17.5238 20.5962C18.2535 19.7197 19.1507 18.9665 19.7309 18.0429C20.995 16.0269 21.8742 14.0317 22.1539 12.2885C22.2938 11.4162 22.3436 10.5688 21.9379 9.73523C21.5309 8.90307 20.4702 8.30769 19.5149 8.30769C17.6526 8.30769 16.0866 9.51231 15.0149 11.1198C13.9418 12.7288 13.2841 14.8389 13.2841 17.1775C13.2841 18.3918 13.6649 19.4123 14.0622 20.4231C13.7327 20.7415 13.4946 21.1846 13.1539 21.4615C11.5533 22.7658 9.87932 23.5385 8.43794 23.5385C7.81071 23.5385 7.25132 23.2643 6.70717 22.9763C7.35378 22.1151 7.40363 22.2286 8.09178 21.2012C10.9275 16.9657 13.8462 11.5518 13.8462 6.36231C13.8462 5.74615 13.8047 4.63154 13.1539 3.50584C12.5032 2.37877 11.0521 1.38461 9.13025 1.38461ZM9.13025 4.15384C10.2546 4.15384 10.4816 4.45846 10.7309 4.88907C10.9801 5.32107 11.077 6.00784 11.077 6.36092C11.077 10.4483 8.45732 15.6503 5.75455 19.6878C5.20209 20.5131 5.20209 20.3995 4.67317 21.1154C4.63579 21.06 4.5804 21.042 4.54302 20.9852C3.51286 19.4026 2.89948 17.2883 2.89948 15.6628C2.89969 15.6489 2.89969 15.6351 2.89948 15.6212C2.8344 11.4743 4.06255 8.60815 5.49563 6.75C6.92732 4.89184 8.73978 4.15384 9.13025 4.15384ZM19.4276 11.1198C19.447 11.2223 19.4996 11.4051 19.4276 11.8551C19.249 12.9683 18.5179 14.7808 17.3936 16.5725C17.0849 17.064 16.5864 17.4309 16.2264 17.9142C16.1932 17.6262 16.0533 17.4932 16.0533 17.1775C16.0533 15.3637 16.5795 13.7257 17.3078 12.6346C18.0029 11.5906 18.8073 11.16 19.4276 11.1198ZM9.23946e-05 31.8462V34.6154H36.0001V31.8462H9.23946e-05Z" fill="black"/>
</g>
<defs>
<clipPath id="clip0_22_893">
<rect width="36" height="36" fill="white"/>
</clipPath>
</defs>
</svg>
